<svg width="48" height="48" viewBox="0 0 48 48" fill="none" xmlns="http://www.w3.org/2000/svg">
<rect x="0.722535" y="0.722535" width="46.5549" height="46.5549" rx="7.57042" fill="#2F52FD"/>
<rect x="0.722535" y="0.722535" width="46.5549" height="46.5549" rx="7.57042" stroke="#2F52FD" stroke-width="1.44507"/>
<path d="M15.1282 17.1437C16.2726 17.1437 17.1998 16.2157 17.1998 15.0721C17.1998 13.9272 16.2726 13 15.1282 13C13.9833 13 13.0562 13.9272 13.0562 15.0721C13.0561 16.2158 13.9833 17.1437 15.1282 17.1437Z" fill="white"/>
<path d="M23.9853 22.6362V22.6393C23.9903 22.6393 23.9949 22.6378 24 22.6378C24.005 22.6378 24.0097 22.6393 24.0147 22.6393V22.6362C24.7932 22.6204 25.4194 21.9872 25.4194 21.2056C25.4194 20.4228 24.7931 19.79 24.0147 19.7741V19.771C24.0097 19.771 24.005 19.7725 24 19.7725C23.9949 19.7725 23.9903 19.771 23.9853 19.771V19.7741C23.2068 19.79 22.5806 20.4228 22.5806 21.2056C22.5806 21.9871 23.2068 22.6203 23.9853 22.6362Z" fill="white"/>
<path d="M32.8719 17.1437C34.0167 17.1437 34.944 16.2157 34.944 15.0721C34.944 13.9272 34.0167 13 32.8719 13C31.7274 13 30.8003 13.9272 30.8003 15.0721C30.8003 16.2158 31.7275 17.1437 32.8719 17.1437Z" fill="white"/>
<path d="M36.8055 27.1851V20.2214C36.8055 19.2172 35.7133 18.125 34.7094 18.125H34.4194L32.9778 19.5665L31.5665 18.1552C30.6742 18.2857 29.8876 18.8388 29.4697 19.6568L27.7943 24.5573C27.7366 24.6696 27.6293 24.7493 27.5046 24.7714C27.3798 24.7935 27.252 24.7559 27.1587 24.6696L26.1165 23.7672C25.8048 23.4786 25.3957 23.3183 24.9709 23.3183H23.9999H23.029C22.6041 23.3183 22.1951 23.4786 21.8834 23.7672L20.8411 24.6696C20.7478 24.7559 20.6199 24.7935 20.4953 24.7714C20.3705 24.7493 20.2633 24.6696 20.2056 24.5573L18.5301 19.6568C18.0499 18.7168 17.0832 18.125 16.0274 18.125H15.1068H13.2904C12.2865 18.125 11.1943 19.2172 11.1943 20.2214V27.185C11.1943 27.687 11.601 28.094 12.103 28.094C12.35 28.094 12.103 28.094 12.7374 28.094L13.0828 34.0328C13.0828 34.5669 13.5162 34.9999 14.0503 34.9999C14.2757 34.9999 14.6913 34.9999 15.1068 34.9999C15.5224 34.9999 15.938 34.9999 16.1634 34.9999C16.6974 34.9999 17.1308 34.5669 17.1308 34.0328L17.4763 28.094L17.472 23.8539C17.472 23.7869 17.5177 23.7292 17.5831 23.7129C17.6486 23.6974 17.7156 23.7284 17.7462 23.7881L19.0754 27.0595C19.2357 27.3725 19.5332 27.5925 19.8795 27.6541C20.2257 27.7156 20.5808 27.6119 20.8392 27.3733L22.111 26.4364C22.1537 26.3973 22.2152 26.3873 22.2679 26.4093C22.321 26.4329 22.3551 26.4852 22.3551 26.5425L22.3598 30.2195L22.5987 34.3307C22.5987 34.7002 22.8988 34.9999 23.2688 34.9999C23.4244 34.9999 23.7122 34.9999 24 34.9999C24.2877 34.9999 24.5755 34.9999 24.7312 34.9999C25.1011 34.9999 25.4012 34.7002 25.4012 34.3307L25.6401 30.2195L25.6448 26.5425C25.6448 26.4852 25.6789 26.4329 25.7319 26.4093C25.7846 26.3872 25.8462 26.3973 25.8888 26.4364L27.1607 27.3733C27.419 27.6119 27.7741 27.7156 28.1204 27.6541C28.4666 27.5925 28.7641 27.3725 28.9244 27.0595L30.2536 23.7881C30.2842 23.7284 30.3512 23.6974 30.4167 23.7129C30.4821 23.7292 30.5278 23.7869 30.5278 23.8539L30.5263 25.4712L29.1316 29.8055C29.0986 29.9081 29.1165 30.0204 29.18 30.1076C29.2435 30.1947 29.345 30.2462 29.4527 30.2462H30.6487L30.869 34.0328C30.869 34.5669 31.3024 34.9999 31.8365 34.9999C32.0619 34.9999 32.4775 34.9999 32.893 34.9999C33.3086 34.9999 33.7241 34.9999 33.9496 34.9999C34.4836 34.9999 34.917 34.5669 34.917 34.0328L35.1374 30.2462H36.4589C36.5665 30.2462 36.668 30.1947 36.7315 30.1076C36.7951 30.0204 36.8129 29.9081 36.78 29.8055L36.2103 28.0352C36.5573 27.907 36.8055 27.5762 36.8055 27.1851ZM15.4674 19.1521V22.8834H14.3652V19.1521H15.4674Z" fill="white"/>
</svg>
