<svg width="48" height="48" viewBox="0 0 48 48" fill="none" xmlns="http://www.w3.org/2000/svg">
<rect x="0.722535" y="0.722535" width="46.5549" height="46.5549" rx="7.57042" fill="#2F52FD"/>
<rect x="0.722535" y="0.722535" width="46.5549" height="46.5549" rx="7.57042" stroke="#2F52FD" stroke-width="1.44507"/>
<path d="M36.2784 23.6934L32.6239 15.5444C32.6237 15.5442 32.6236 15.544 32.6235 15.5438L32.6188 15.5332C32.6065 15.5059 32.592 15.4803 32.5758 15.4559C32.5715 15.4493 32.5664 15.4433 32.5618 15.437C32.5474 15.417 32.5318 15.3981 32.515 15.3803C32.5084 15.3734 32.5017 15.3665 32.4947 15.3599C32.4762 15.3424 32.4566 15.3261 32.4359 15.3113C32.4305 15.3074 32.4255 15.303 32.4199 15.2992C32.3938 15.282 32.3663 15.2672 32.3376 15.2545C32.3294 15.2509 32.3209 15.2482 32.3125 15.245C32.29 15.2364 32.2671 15.2292 32.2435 15.2236C32.2338 15.2213 32.2242 15.219 32.2144 15.2172C32.182 15.2112 32.1492 15.2073 32.1155 15.2073H25.6669C25.5565 14.8639 25.3421 14.5678 25.0615 14.3533V13.5518C25.0615 13.2471 24.8144 13 24.5097 13H23.4795C23.1748 13 22.9276 13.2471 22.9276 13.5518V14.3665C22.6556 14.5798 22.4479 14.8711 22.3398 15.2074H15.8737C15.84 15.2074 15.8072 15.2115 15.7748 15.2173C15.7648 15.2191 15.7553 15.2214 15.7456 15.2237C15.722 15.2293 15.699 15.2365 15.6766 15.2451C15.6683 15.2483 15.6598 15.251 15.6516 15.2546C15.6229 15.2673 15.5953 15.282 15.5693 15.2993C15.5636 15.3031 15.5587 15.3075 15.5533 15.3115C15.5325 15.3262 15.513 15.3424 15.4944 15.36C15.4874 15.3666 15.4807 15.3735 15.474 15.3804C15.4571 15.3982 15.4417 15.4172 15.4272 15.4372C15.4226 15.4436 15.4175 15.4495 15.4132 15.456C15.3971 15.4804 15.3825 15.506 15.3703 15.5333L15.3655 15.5439C15.3654 15.5441 15.3653 15.5443 15.3652 15.5445L11.6976 23.7223C11.6356 23.8116 11.5986 23.9197 11.5986 24.0366C11.5986 26.3939 13.5164 28.3117 15.8737 28.3117C18.2309 28.3117 20.1487 26.3939 20.1487 24.0366C20.1487 23.9197 20.1118 23.8117 20.0497 23.7224L16.7259 16.3108H22.3532C22.4643 16.6315 22.6656 16.9095 22.9275 17.115V30.9531H18.034C17.8275 30.9531 17.6382 31.0684 17.5435 31.252L16.0255 34.1952C15.9373 34.3663 15.9446 34.571 16.0447 34.7353C16.1449 34.8997 16.3234 35 16.516 35H31.473C31.4737 34.9999 31.4744 35 31.4753 35C31.78 35 32.0271 34.7529 32.0271 34.4482C32.0271 34.34 31.996 34.2391 31.9422 34.154L30.4453 31.252C30.3506 31.0684 30.1613 30.9531 29.9548 30.9531H25.0614V17.1281C25.3317 16.9214 25.5397 16.6385 25.6533 16.3108H31.2631L27.8996 23.8108C27.8988 23.8128 27.8983 23.8148 27.8974 23.8168C27.8949 23.8227 27.893 23.8289 27.8906 23.835C27.8807 23.8603 27.8727 23.8861 27.8666 23.9121C27.8651 23.919 27.8631 23.9256 27.8618 23.9325C27.8557 23.9641 27.8526 23.996 27.8522 24.028C27.8522 24.031 27.8513 24.0337 27.8513 24.0366C27.8513 26.3939 29.7691 28.3117 32.1263 28.3117C34.4836 28.3117 36.4013 26.3939 36.4013 24.0366C36.4013 23.9062 36.3541 23.7879 36.2784 23.6934ZM18.7335 23.4848H13.0138L15.8737 17.1076L18.7335 23.4848ZM24.6471 15.7407C24.6471 16.0957 24.3582 16.3845 24.0033 16.3845C23.6482 16.3845 23.3594 16.0956 23.3594 15.7407C23.3594 15.3856 23.6482 15.0969 24.0033 15.0969C24.3582 15.0968 24.6471 15.3856 24.6471 15.7407ZM29.2554 23.4848L32.1154 17.1076L34.9753 23.4848H29.2554Z" fill="white"/>
</svg>
