<svg width="48" height="48" viewBox="0 0 48 48" fill="none" xmlns="http://www.w3.org/2000/svg">
<rect x="0.722535" y="0.722535" width="46.5549" height="46.5549" rx="7.57042" fill="#2F52FD"/>
<rect x="0.722535" y="0.722535" width="46.5549" height="46.5549" rx="7.57042" stroke="#2F52FD" stroke-width="1.44507"/>
<path d="M34.3783 31.3759L28.8968 25.8945C28.4911 25.4887 27.9619 25.2821 27.43 25.2735C29.4864 22.2097 29.1624 18.0113 26.4569 15.3058C23.3824 12.2314 18.3802 12.2314 15.3058 15.3058C12.2314 18.3801 12.2314 23.3825 15.3058 26.4568C18.0113 29.1623 22.2098 29.4865 25.2736 27.43C25.2822 27.9618 25.4888 28.491 25.8945 28.8967L31.376 34.3782C32.2051 35.2073 33.5492 35.2073 34.3782 34.3782C35.2073 33.5491 35.2073 32.205 34.3783 31.3759ZM24.7413 24.7412C22.6129 26.8696 19.1498 26.8696 17.0214 24.7412C14.893 22.6128 14.893 19.1497 17.0214 17.0213C19.1498 14.8929 22.6129 14.8929 24.7413 17.0213C26.8697 19.1496 26.8697 22.6128 24.7413 24.7412Z" fill="white"/>
</svg>
