<svg width="48" height="48" viewBox="0 0 48 48" fill="none" xmlns="http://www.w3.org/2000/svg">
<rect x="0.722535" y="0.722535" width="46.5549" height="46.5549" rx="7.57042" fill="#2F52FD"/>
<rect x="0.722535" y="0.722535" width="46.5549" height="46.5549" rx="7.57042" stroke="#2F52FD" stroke-width="1.44507"/>
<path d="M19 20H16C14.9 20 14 19.1 14 18V16C14 14.9 14.9 14 16 14H19C20.1 14 21 14.9 21 16V18C21 19.1 20.1 20 19 20Z" fill="white"/>
<path d="M32.8 19H29.2C28.54 19 28 18.46 28 17.8V16.2C28 15.54 28.54 15 29.2 15H32.8C33.46 15 34 15.54 34 16.2V17.8C34 18.46 33.46 19 32.8 19Z" fill="white"/>
<path d="M32.8 26.5H29.2C28.54 26.5 28 25.96 28 25.3V23.7C28 23.04 28.54 22.5 29.2 22.5H32.8C33.46 22.5 34 23.04 34 23.7V25.3C34 25.96 33.46 26.5 32.8 26.5Z" fill="white"/>
<path opacity="0.96" d="M28 25.25C28.41 25.25 28.75 24.91 28.75 24.5C28.75 24.09 28.41 23.75 28 23.75H25.25V17.75H28C28.41 17.75 28.75 17.41 28.75 17C28.75 16.59 28.41 16.25 28 16.25H21C20.59 16.25 20.25 16.59 20.25 17C20.25 17.41 20.59 17.75 21 17.75H23.75V30C23.75 31.52 24.98 32.75 26.5 32.75H28C28.41 32.75 28.75 32.41 28.75 32C28.75 31.59 28.41 31.25 28 31.25H26.5C25.81 31.25 25.25 30.69 25.25 30V25.25H28Z" fill="white"/>
<path d="M32.8 34H29.2C28.54 34 28 33.46 28 32.8V31.2C28 30.54 28.54 30 29.2 30H32.8C33.46 30 34 30.54 34 31.2V32.8C34 33.46 33.46 34 32.8 34Z" fill="white"/>
</svg>
