<svg width="48" height="48" viewBox="0 0 48 48" fill="none" xmlns="http://www.w3.org/2000/svg">
<rect x="0.722535" y="0.722535" width="46.5549" height="46.5549" rx="7.57042" fill="#2F52FD"/>
<rect x="0.722535" y="0.722535" width="46.5549" height="46.5549" rx="7.57042" stroke="#2F52FD" stroke-width="1.44507"/>
<path d="M32.8002 13.8071H15.2002V14.2108H32.8002V13.8071Z" fill="white"/>
<path d="M32.8002 13H15.2002V13.4037H32.8002V13Z" fill="white"/>
<path d="M23.3036 21.2389L20.1733 19.2871L17.0405 21.2409L20.1733 23.1704L23.3036 21.2389Z" fill="white"/>
<path d="M23.3036 25.9719L22.0817 25.209L20.1733 26.3837L18.265 25.209L17.0405 25.9739L20.1733 27.9015L23.3036 25.9719Z" fill="white"/>
<path d="M27.1333 17.818L24.0005 15.8643L20.8677 17.82L24.0005 19.7496L27.1333 17.818Z" fill="white"/>
<path d="M15.2002 30.7614L24.0002 34.9999L32.8002 30.7614V14.8164H15.2002V30.7614ZM16.6308 25.9738L18.0589 25.0817L16.6308 24.2017V21.2428L20.1735 19.0327L23.7111 21.2388H23.7136V20.9724L20.4576 18.9419V17.8217L24.0002 15.6116L27.5428 17.8197V18.9419L24.2843 20.9744V21.2428L27.8269 19.0327L31.3696 21.2408V24.2017L29.9415 25.0817L31.3696 25.9718V28.9327L27.8269 31.1166L24.2843 28.9348V25.9738L25.7124 25.0817L24.2843 24.2017V22.7848L24.0002 22.9625L23.7161 22.7869V22.7808V24.1997L22.288 25.0797L23.7161 25.9698V28.9307L20.1735 31.1166L16.6308 28.9348V25.9738Z" fill="white"/>
<path d="M27.8271 26.3837L25.9187 25.209L24.6968 25.9739L27.8271 27.9015L30.9599 25.9719L29.7354 25.209L27.8271 26.3837Z" fill="white"/>
<path d="M30.9599 21.2389L27.8271 19.2871L24.6968 21.2409L27.8271 23.1704L30.9599 21.2389Z" fill="white"/>
</svg>
