<svg width="48" height="48" viewBox="0 0 48 48" fill="none" xmlns="http://www.w3.org/2000/svg">
<g clip-path="url(#clip0_426_343)">
<path d="M16.6152 22.154H10.1536C9.38435 22.154 8.73035 21.8849 8.19183 21.3464C7.65362 20.8078 7.38416 20.154 7.38416 19.3846V18.4619C7.38416 16.4233 8.10545 14.6831 9.54793 13.2406C10.9903 11.7986 12.7308 11.0773 14.7692 11.0773H16.6152C17.1152 11.0773 17.5477 10.8946 17.9132 10.5293C18.2786 10.1639 18.4613 9.73136 18.4613 9.23133V5.5387C18.4613 5.03878 18.2785 4.60584 17.9132 4.2404C17.5478 3.87546 17.1153 3.69238 16.6152 3.69238H14.7692C12.769 3.69238 10.8608 4.08218 9.04325 4.86065C7.22593 5.63963 5.65403 6.69262 4.32693 8.01972C2.99994 9.34621 1.94725 10.9182 1.16837 12.7357C0.389491 14.5531 0 16.4618 0 18.4618V38.769C0 40.3082 0.538214 41.6152 1.61515 42.6926C2.69218 43.7693 4.00019 44.3076 5.53855 44.3076H16.6159C18.1542 44.3076 19.4618 43.7693 20.5389 42.6926C21.6157 41.6152 22.1542 40.3082 22.1542 38.769V27.6926C22.1542 26.1536 21.6157 24.8466 20.5382 23.7692C19.4616 22.6926 18.1535 22.154 16.6152 22.154Z" fill="#2F52FD"/>
<path d="M46.3864 23.7692C45.3098 22.6926 44.0021 22.154 42.4634 22.154H36.0019C35.233 22.154 34.5784 21.8849 34.0408 21.3464C33.5021 20.8078 33.2331 20.154 33.2331 19.3846V18.4619C33.2331 16.4233 33.9544 14.6831 35.3962 13.2406C36.8381 11.7986 38.5785 11.0773 40.6179 11.0773H42.4635C42.9635 11.0773 43.3964 10.8946 43.7616 10.5293C44.1266 10.1639 44.31 9.73136 44.31 9.23133V5.5387C44.31 5.03878 44.1267 4.60584 43.7616 4.2404C43.3965 3.87546 42.9636 3.69238 42.4635 3.69238H40.6179C38.6166 3.69238 36.7087 4.08218 34.8907 4.86065C33.0737 5.63963 31.5023 6.69262 30.1752 8.01972C28.8481 9.34621 27.7949 10.9182 27.0163 12.7357C26.2377 14.5531 25.8477 16.4618 25.8477 18.4618V38.769C25.8477 40.3082 26.3864 41.6152 27.463 42.6926C28.5397 43.7693 29.8474 44.3076 31.386 44.3076H42.4628C44.0015 44.3076 45.3091 43.7693 46.3857 42.6926C47.4631 41.6152 48.0007 40.3082 48.0007 38.769V27.6926C48.0008 26.1535 47.4631 24.8466 46.3864 23.7692Z" fill="#2F52FD"/>
</g>
<defs>
<clipPath id="clip0_426_343">
<rect width="48" height="47.9999" fill="white"/>
</clipPath>
</defs>
</svg>
